Normalized EMG Linear Envelopes
nRows=258
nColumns=4

endheader
time	 med_gas_r	  soleus_r	 tib_ant_r	
2.49496	  0.067012	  0.034920	  0.013748	
2.52823	  0.073186	  0.035437	  0.014047	
2.56149	  0.078641	  0.035863	  0.014472	
2.59476	  0.082877	  0.036124	  0.015081	
2.62802	  0.085503	  0.036225	  0.015865	
2.66129	  0.086386	  0.036247	  0.016750	
2.69456	  0.085762	  0.036306	  0.017619	
2.72782	  0.084191	  0.036487	  0.018343	
2.76109	  0.082304	  0.036808	  0.018816	
2.79435	  0.080520	  0.037210	  0.018970	
2.82762	  0.078915	  0.037565	  0.018778	
2.86089	  0.077334	  0.037711	  0.018257	
2.89415	  0.075588	  0.037524	  0.017480	
2.92742	  0.073592	  0.037010	  0.016574	
2.96069	  0.071395	  0.036334	  0.015702	
2.99395	  0.069158	  0.035752	  0.015011	
3.02722	  0.067120	  0.035465	  0.014584	
3.06048	  0.065575	  0.035517	  0.014420	
3.09375	  0.064811	  0.035817	  0.014450	
3.12702	  0.065024	  0.036236	  0.014595	
3.16028	  0.066243	  0.036690	  0.014799	
3.19355	  0.068285	  0.037139	  0.015041	
3.22681	  0.070759	  0.037531	  0.015314	
3.26008	  0.073122	  0.037769	  0.015595	
3.29335	  0.074797	  0.037741	  0.015847	
3.32661	  0.075360	  0.037401	  0.016034	
3.35988	  0.074715	  0.036818	  0.016142	
3.39315	  0.073168	  0.036173	  0.016177	
3.42641	  0.071343	  0.035688	  0.016150	
3.45968	  0.069953	  0.035535	  0.016065	
3.49294	  0.069545	  0.035759	  0.015927	
3.52621	  0.070321	  0.036268	  0.015748	
3.55948	  0.072081	  0.036889	  0.015550	
3.59274	  0.074283	  0.037466	  0.015345	
3.62601	  0.076211	  0.037924	  0.015110	
3.65927	  0.077211	  0.038263	  0.014797	
3.69254	  0.076920	  0.038506	  0.014380	
3.72581	  0.075387	  0.038667	  0.013893	
3.75907	  0.073018	  0.038757	  0.013438	
3.79234	  0.070387	  0.038799	  0.013129	
3.8256	  0.068021	  0.038826	  0.013031	
3.85887	  0.066238	  0.038890	  0.013145	
3.89214	  0.065109	  0.039067	  0.013418	
3.9254	  0.064526	  0.039446	  0.013790	
3.95867	  0.064317	  0.040086	  0.014203	
3.99194	  0.064353	  0.040971	  0.014621	
4.0252	  0.064599	  0.041999	  0.015025	
4.05847	  0.065100	  0.043033	  0.015417	
4.09173	  0.065947	  0.043988	  0.015791	
4.125	  0.067231	  0.044879	  0.016115	
4.15827	  0.068988	  0.045801	  0.016329	
4.19153	  0.071141	  0.046835	  0.016384	
4.2248	  0.073450	  0.047942	  0.016270	
4.25806	  0.075506	  0.048944	  0.016010	
4.29133	  0.076838	  0.049599	  0.015610	
4.3246	  0.077089	  0.049720	  0.015027	
4.35786	  0.076181	  0.049242	  0.014183	
4.39113	  0.074328	  0.048199	  0.013001	
4.4244	  0.071905	  0.046666	  0.011442	
4.45766	  0.069277	  0.044720	  0.009508	
4.49093	  0.066707	  0.042459	  0.007273	
4.52419	  0.064379	  0.040053	  0.004943	
4.55746	  0.062483	  0.037791	  0.002972	
4.59073	  0.061327	  0.036090	  0.002142	
4.62399	  0.061452	  0.035499	  0.003593	
4.65726	  0.063751	  0.036739	  0.008797	
4.69052	  0.069516	  0.040767	  0.019534	
4.72379	  0.080327	  0.048745	  0.037796	
4.75706	  0.097703	  0.061835	  0.065417	
4.79032	  0.122485	  0.080742	  0.103230	
4.82359	  0.154133	  0.105169	  0.149958	
4.85685	  0.190302	  0.133503	  0.201595	
4.89012	  0.227138	  0.163037	  0.252072	
4.92339	  0.260375	  0.190782	  0.295253	
4.95665	  0.286801	  0.214433	  0.327225	
4.98992	  0.305336	  0.232973	  0.347502	
5.02319	  0.317191	  0.246658	  0.358519	
5.05645	  0.325053	  0.256618	  0.364017	
5.08972	  0.331806	  0.264414	  0.367464	
5.12298	  0.339456	  0.271690	  0.371281	
5.15625	  0.348696	  0.279797	  0.376814	
5.18952	  0.359123	  0.289366	  0.384571	
5.22278	  0.369896	  0.300133	  0.394407	
5.25605	  0.380516	  0.311303	  0.405705	
5.28931	  0.391345	  0.322291	  0.417647	
5.32258	  0.403487	  0.333181	  0.429475	
5.35585	  0.417869	  0.344419	  0.440546	
5.38911	  0.434067	  0.356002	  0.450225	
5.42238	  0.449878	  0.366963	  0.457916	
5.45565	  0.462206	  0.375673	  0.463370	
5.48891	  0.468722	  0.380705	  0.466984	
5.52218	  0.469027	  0.381523	  0.469628	
5.55544	  0.464463	  0.378557	  0.472013	
5.58871	  0.456934	  0.372823	  0.474232	
5.62198	  0.447894	  0.365596	  0.476046	
5.65524	  0.438300	  0.358394	  0.477715	
5.68851	  0.429281	  0.353025	  0.480450	
5.72177	  0.422507	  0.351195	  0.485843	
5.75504	  0.419683	  0.353660	  0.494679	
5.78831	  0.421626	  0.359611	  0.506273	
5.82157	  0.427928	  0.367103	  0.519014	
5.85484	  0.437562	  0.374458	  0.531623	
5.8881	  0.449739	  0.381553	  0.544018	
5.92137	  0.464105	  0.389829	  0.557132	
5.95464	  0.480203	  0.400964	  0.572048	
5.9879	  0.496994	  0.415370	  0.589182	
6.02117	  0.513142	  0.431767	  0.607881	
6.05444	  0.527771	  0.448054	  0.626423	
6.0877	  0.540699	  0.462512	  0.642417	
6.12097	  0.551706	  0.474183	  0.653626	
6.15423	  0.559611	  0.482229	  0.658873	
6.1875	  0.562467	  0.485339	  0.658371	
6.22077	  0.559196	  0.482313	  0.653241	
6.25403	  0.551345	  0.473577	  0.644784	
6.2873	  0.543244	  0.462208	  0.634189	
6.32056	  0.540245	  0.453380	  0.622715	
6.35383	  0.546462	  0.452643	  0.611802	
6.3871	  0.563569	  0.464146	  0.602818	
6.42036	  0.590816	  0.489372	  0.596774	
6.45363	  0.625440	  0.526393	  0.594410	
6.4869	  0.663112	  0.569925	  0.596601	
6.52016	  0.698875	  0.612781	  0.604499	
6.55343	  0.728750	  0.648493	  0.618986	
6.58669	  0.751113	  0.673679	  0.639704	
6.61996	  0.766721	  0.688608	  0.664449	
6.65323	  0.777342	  0.695785	  0.689568	
6.68649	  0.784194	  0.697871	  0.711318	
6.71976	  0.787455	  0.696483	  0.727380	
6.75302	  0.787056	  0.692420	  0.737593	
6.78629	  0.783838	  0.686681	  0.743491	
6.81956	  0.779958	  0.681144	  0.747050	
6.85282	  0.778057	  0.678152	  0.749476	
6.88609	  0.779713	  0.679209	  0.750706	
6.91935	  0.784245	  0.683761	  0.749764	
6.95262	  0.788822	  0.689105	  0.745698	
6.98589	  0.789931	  0.691677	  0.738573	
7.01915	  0.785256	  0.688943	  0.729858	
7.05242	  0.774736	  0.680617	  0.721773	
7.08569	  0.760302	  0.668456	  0.715885	
7.11895	  0.744824	  0.655035	  0.711992	
7.15222	  0.731157	  0.642612	  0.708329	
7.18548	  0.721703	  0.632831	  0.703063	
7.21875	  0.718194	  0.626928	  0.695857	
7.25202	  0.721181	  0.625601	  0.688251	
7.28528	  0.729272	  0.628382	  0.682738	
7.31855	  0.738929	  0.633369	  0.681539	
7.35181	  0.745516	  0.638011	  0.686103	
7.38508	  0.745338	  0.640461	  0.697313	
7.41835	  0.737376	  0.640297	  0.715607	
7.45161	  0.723562	  0.638139	  0.740392	
7.48488	  0.707544	  0.634812	  0.769162	
7.51815	  0.692883	  0.630888	  0.797274	
7.55141	  0.681723	  0.626648	  0.819046	
7.58468	  0.674467	  0.622041	  0.829791	
7.61794	  0.670377	  0.616673	  0.827687	
7.65121	  0.668660	  0.610231	  0.814435	
7.68448	  0.669391	  0.603320	  0.794390	
7.71774	  0.673761	  0.597906	  0.772707	
7.75101	  0.683537	  0.596625	  0.753369	
7.78427	  0.699943	  0.601276	  0.737915	
7.81754	  0.722454	  0.611701	  0.725317	
7.85081	  0.748200	  0.625918	  0.713052	
7.88407	  0.772570	  0.641246	  0.698827	
7.91734	  0.790916	  0.655318	  0.681898	
7.9506	  0.800310	  0.666192	  0.663199	
7.98387	  0.800193	  0.671784	  0.644495	
8.01714	  0.791690	  0.669672	  0.627640	
8.0504	  0.776422	  0.657949	  0.614575	
8.08367	  0.755764	  0.636638	  0.607579	
8.11694	  0.730829	  0.608376	  0.608825	
8.1502	  0.702899	  0.577596	  0.619130	
8.18347	  0.673866	  0.548801	  0.636846	
8.21673	  0.646375	  0.525259	  0.657999	
8.25	  0.623530	  0.508879	  0.677840	
8.28327	  0.608251	  0.500854	  0.692890	
8.31653	  0.602544	  0.502009	  0.702235	
8.3498	  0.606878	  0.512253	  0.707405	
8.38306	  0.619856	  0.529576	  0.711151	
8.41633	  0.638349	  0.549704	  0.715982	
8.4496	  0.658279	  0.567214	  0.723163	
8.48286	  0.675883	  0.577709	  0.732372	
8.51613	  0.688872	  0.579769	  0.741903	
8.5494	  0.696974	  0.575530	  0.749345	
8.58266	  0.701831	  0.569807	  0.752558	
8.61593	  0.706465	  0.568397	  0.750581	
8.64919	  0.714321	  0.576223	  0.743976	
8.68246	  0.727829	  0.595689	  0.734512	
8.71573	  0.747050	  0.625779	  0.724582	
8.74899	  0.769499	  0.662596	  0.716714	
8.78226	  0.791562	  0.701254	  0.712969	
8.81552	  0.810412	  0.737777	  0.713980	
8.84879	  0.824609	  0.769314	  0.718143	
8.88206	  0.832969	  0.792710	  0.722081	
8.91532	  0.833260	  0.803385	  0.722663	
8.94859	  0.822544	  0.796377	  0.719196	
8.98185	  0.799148	  0.769142	  0.713945	
9.01512	  0.764438	  0.723877	  0.710454	
9.04839	  0.722807	  0.667436	  0.711071	
9.08165	  0.679973	  0.608890	  0.715600	
9.11492	  0.640972	  0.556377	  0.721840	
9.14819	  0.609062	  0.515099	  0.727185	
9.18145	  0.585809	  0.487207	  0.729901	
9.21472	  0.571771	  0.472924	  0.729377	
9.24798	  0.566952	  0.471581	  0.725659	
9.28125	  0.570493	  0.481642	  0.718946	
9.31452	  0.579933	  0.500023	  0.709513	
9.34778	  0.591155	  0.521968	  0.698133	
9.38105	  0.599896	  0.542476	  0.686700	
9.41431	  0.604263	  0.558683	  0.678457	
9.44758	  0.606156	  0.571213	  0.677232	
9.48085	  0.609884	  0.583022	  0.685617	
9.51411	  0.618697	  0.596469	  0.702930	
9.54738	  0.632102	  0.611046	  0.724306	
9.58065	  0.646210	  0.623586	  0.741877	
9.61391	  0.656581	  0.630501	  0.747803	
9.64718	  0.661024	  0.630010	  0.737704	
9.68044	  0.660329	  0.622752	  0.712605	
9.71371	  0.656928	  0.610739	  0.678328	
9.74698	  0.652847	  0.595795	  0.642701	
9.78024	  0.648262	  0.578600	  0.612129	
9.81351	  0.641258	  0.558751	  0.589294	
9.84677	  0.628658	  0.535415	  0.572769	
9.88004	  0.607244	  0.507766	  0.558124	
9.91331	  0.574708	  0.474887	  0.539486	
9.94657	  0.530197	  0.435686	  0.511106	
9.97984	  0.474779	  0.389562	  0.469185	
10.0131	  0.411901	  0.337646	  0.413804	
10.0464	  0.347224	  0.283457	  0.349716	
10.0796	  0.287234	  0.231993	  0.284780	
10.1129	  0.236992	  0.187640	  0.226625	
10.1462	  0.198461	  0.152400	  0.179769	
10.1794	  0.170614	  0.125707	  0.145011	
10.2127	  0.151045	  0.105703	  0.120789	
10.246	  0.137620	  0.090685	  0.104841	
10.2792	  0.129018	  0.079692	  0.095014	
10.3125	  0.124308	  0.072211	  0.089391	
10.3458	  0.122396	  0.067681	  0.086361	
10.379	  0.121909	  0.065273	  0.084769	
10.4123	  0.121506	  0.064019	  0.083918	
10.4456	  0.120274	  0.063098	  0.083317	
10.4788	  0.117941	  0.062060	  0.082378	
10.5121	  0.114762	  0.060820	  0.080319	
10.5454	  0.111163	  0.059427	  0.076399	
10.5786	  0.107392	  0.057826	  0.070314	
10.6119	  0.103445	  0.055865	  0.062494	
10.6452	  0.099240	  0.053502	  0.054020	
10.6784	  0.094839	  0.050949	  0.046196	
10.7117	  0.090488	  0.048547	  0.040036	
10.745	  0.086520	  0.046507	  0.035977	
10.7782	  0.083219	  0.044788	  0.033893	
10.8115	  0.080756	  0.043217	  0.033275	
10.8448	  0.079163	  0.041714	  0.033428	
10.878	  0.078327	  0.040392	  0.033642	
10.9113	  0.077986	  0.039470	  0.033354	
10.9446	  0.077785	  0.039100	  0.032271	
10.9778	  0.077396	  0.039277	  0.030398	
11.0111	  0.076656	  0.039868	  0.027942	
11.0444	  0.075629	  0.040711	  0.025176	
